<svg width="21" height="20" viewBox="0 0 21 20" fill="none" xmlns="http://www.w3.org/2000/svg">
<path d="M10.3784 19C9.73344 18.428 9.00444 17.833 8.23344 17.2H8.22344C5.50844 14.98 2.43144 12.468 1.07244 9.458C0.625958 8.49972 0.389345 7.45712 0.378429 6.4C0.375448 4.94948 0.957212 3.55898 1.99225 2.54276C3.02729 1.52654 4.42823 0.97039 5.87844 0.999995C7.05907 1.00186 8.21428 1.34308 9.20644 1.983C9.64241 2.26596 10.0369 2.60825 10.3784 3C10.7219 2.60979 11.1165 2.2677 11.5514 1.983C12.5432 1.34295 13.6981 1.00171 14.8784 0.999995C16.3287 0.97039 17.7296 1.52654 18.7646 2.54276C19.7997 3.55898 20.3814 4.94948 20.3785 6.4C20.3682 7.45881 20.1316 8.50319 19.6844 9.463C18.3254 12.473 15.2494 14.984 12.5344 17.2L12.5244 17.208C11.7524 17.837 11.0244 18.432 10.3794 19.008L10.3784 19ZM5.87844 3C4.94695 2.98834 4.04851 3.34484 3.37844 3.992C2.73283 4.62616 2.372 5.49504 2.37836 6.4C2.38977 7.1705 2.56427 7.92985 2.89044 8.628C3.53195 9.9267 4.39755 11.102 5.44744 12.1C6.43844 13.1 7.57844 14.068 8.56444 14.882C8.83744 15.107 9.11544 15.334 9.39344 15.561L9.56844 15.704C9.83544 15.922 10.1114 16.148 10.3784 16.37L10.3914 16.358L10.3974 16.353H10.4034L10.4124 16.346H10.4174H10.4224L10.4404 16.331L10.4814 16.298L10.4884 16.292L10.4994 16.284H10.5054L10.5144 16.276L11.1784 15.731L11.3524 15.588C11.6334 15.359 11.9114 15.132 12.1844 14.907C13.1704 14.093 14.3114 13.126 15.3024 12.121C16.3525 11.1236 17.2181 9.94851 17.8594 8.65C18.1915 7.9458 18.3685 7.1785 18.3785 6.4C18.3826 5.49783 18.022 4.63229 17.3784 4C16.7097 3.34992 15.8111 2.99048 14.8784 3C13.7404 2.99032 12.6524 3.46736 11.8884 4.311L10.3784 6.051L8.86844 4.311C8.1045 3.46736 7.01652 2.99032 5.87844 3Z" fill="#C4C4C4"/>
</svg>
