<svg width="19" height="21" viewBox="0 0 19 21" fill="none" xmlns="http://www.w3.org/2000/svg">
<path d="M4.76953 7V5C4.76953 3.67392 5.29632 2.40215 6.234 1.46447C7.17168 0.526784 8.44345 0 9.76953 0C11.0956 0 12.3674 0.526784 13.3051 1.46447C14.2427 2.40215 14.7695 3.67392 14.7695 5V7H17.7695C18.0347 7 18.2891 7.10536 18.4766 7.29289C18.6642 7.48043 18.7695 7.73478 18.7695 8V20C18.7695 20.2652 18.6642 20.5196 18.4766 20.7071C18.2891 20.8946 18.0347 21 17.7695 21H1.76953C1.50431 21 1.24996 20.8946 1.06242 20.7071C0.874888 20.5196 0.769531 20.2652 0.769531 20V8C0.769531 7.73478 0.874888 7.48043 1.06242 7.29289C1.24996 7.10536 1.50431 7 1.76953 7H4.76953ZM4.76953 9H2.76953V19H16.7695V9H14.7695V11H12.7695V9H6.76953V11H4.76953V9ZM6.76953 7H12.7695V5C12.7695 4.20435 12.4535 3.44129 11.8909 2.87868C11.3282 2.31607 10.5652 2 9.76953 2C8.97388 2 8.21082 2.31607 7.64821 2.87868C7.0856 3.44129 6.76953 4.20435 6.76953 5V7Z" fill="#C4C4C4"/>
</svg>
